<?xml version="1.0" encoding="UTF-8"?>
<svg id="Layer_1" data-name="Layer 1" xmlns="http://www.w3.org/2000/svg" xmlns:xlink="http://www.w3.org/1999/xlink" viewBox="0 0 1133.64 517.01">
  <defs>
    <style>
      .cls-1 {
        clip-path: url(#clippath-11);
      }

      .cls-2 {
        fill: #a6e1fa;
      }

      .cls-2, .cls-3, .cls-4, .cls-5, .cls-6, .cls-7, .cls-8, .cls-9, .cls-10 {
        stroke-width: 0px;
      }

      .cls-11 {
        clip-path: url(#clippath-2);
      }

      .cls-12 {
        clip-path: url(#clippath-6);
      }

      .cls-3 {
        fill: #0e6ba8;
      }

      .cls-4 {
        fill: none;
      }

      .cls-13 {
        clip-path: url(#clippath-7);
      }

      .cls-14 {
        clip-path: url(#clippath-1);
      }

      .cls-15 {
        clip-path: url(#clippath-4);
      }

      .cls-5 {
        fill: #fff;
      }

      .cls-6 {
        fill: #056ce8;
      }

      .cls-7, .cls-16 {
        fill: #050711;
      }

      .cls-8 {
        fill: #bbdefb;
      }

      .cls-17 {
        clip-path: url(#clippath-9);
      }

      .cls-18 {
        clip-path: url(#clippath);
      }

      .cls-9 {
        fill: #072ac8;
      }

      .cls-19 {
        clip-path: url(#clippath-3);
      }

      .cls-20 {
        clip-path: url(#clippath-8);
      }

      .cls-21 {
        clip-path: url(#clippath-5);
      }

      .cls-10 {
        fill: #559fff;
      }

      .cls-22 {
        clip-path: url(#clippath-10);
      }
    </style>
    <clipPath id="clippath">
      <path class="cls-7" d="M1129.69,416.92h0c0,55.19-44.81,100-100,100h0c0-55.19,44.81-100,100-100Z" transform="translate(612.76 1546.61) rotate(-90)"/>
    </clipPath>
    <clipPath id="clippath-1">
      <path class="cls-4" d="M1029.71,416.92h0c0,55.19-44.81,100-100,100h0c0-55.19,44.81-100,100-100Z" transform="translate(1959.42 933.85) rotate(180)"/>
    </clipPath>
    <clipPath id="clippath-2">
      <path class="cls-4" d="M300.81,516.98h0c0-39.12-31.71-70.82-70.82-70.82h0c0,39.12,31.71,70.82,70.82,70.82h0Z"/>
    </clipPath>
    <clipPath id="clippath-3">
      <path class="cls-4" d="M371.64,446.16h0c0,39.09-31.74,70.82-70.82,70.82h0c0-39.09,31.74-70.82,70.82-70.82Z"/>
    </clipPath>
    <clipPath id="clippath-4">
      <path class="cls-4" d="M200.81,316.96h0c55.19,0,100,44.81,100,100h-100v-100h0Z" transform="translate(617.78 116.15) rotate(90)"/>
    </clipPath>
    <clipPath id="clippath-5">
      <path class="cls-4" d="M37.93,267h12.97v12.97c0,20.44-16.59,37.03-37.03,37.03H.89v-12.97c0-20.44,16.59-37.03,37.03-37.03Z"/>
    </clipPath>
    <clipPath id="clippath-6">
      <path class="cls-4" d="M37.93,217h12.97v12.97c0,20.44-16.59,37.03-37.03,37.03H.89v-12.97c0-20.44,16.59-37.03,37.03-37.03Z" transform="translate(267.9 216.11) rotate(90)"/>
    </clipPath>
    <clipPath id="clippath-7">
      <path class="cls-4" d="M87.93,217h12.97v12.97c0,20.44-16.59,37.03-37.03,37.03h-12.97v-12.97c0-20.44,16.59-37.03,37.03-37.03Z" transform="translate(151.79 484.01) rotate(180)"/>
    </clipPath>
    <clipPath id="clippath-8">
      <path class="cls-4" d="M87.93,267h12.97v12.97c0,20.44-16.59,37.03-37.03,37.03h-12.97v-12.97c0-20.44,16.59-37.03,37.03-37.03Z" transform="translate(-216.11 367.9) rotate(-90)"/>
    </clipPath>
    <clipPath id="clippath-9">
      <circle class="cls-4" cx="150.81" cy="466.94" r="22.87" transform="translate(-167.21 93.26) rotate(-22.5)"/>
    </clipPath>
    <clipPath id="clippath-10">
      <rect class="cls-4" x=".81" y="416.98" width="100" height="100"/>
    </clipPath>
    <clipPath id="clippath-11">
      <circle class="cls-4" cx="100.81" cy="466.98" r="50" transform="translate(-376.29 491.69) rotate(-80.78)"/>
    </clipPath>
  </defs>
  <rect class="cls-10" x=".81" width="1128.83" height="516.95"/>
  <g>
    <polygon class="cls-9" points="1029.69 416.92 1129.69 416.92 1129.69 516.92 1029.69 416.92"/>
    <polygon class="cls-10" points="1129.69 516.92 1029.69 516.92 1029.69 416.92 1129.69 516.92"/>
    <g>
      <path class="cls-16" d="M1129.69,416.92h0c0,55.19-44.81,100-100,100h0c0-55.19,44.81-100,100-100Z" transform="translate(612.76 1546.61) rotate(-90)"/>
      <g class="cls-18">
        <path class="cls-5" d="M1129.69,516.92l-100-100s33.86-14.77,76.09,27.46c42.23,42.23,23.91,72.54,23.91,72.54Z"/>
      </g>
    </g>
    <polygon class="cls-7" points="1029.71 416.92 1029.71 516.92 929.71 516.92 1029.71 416.92"/>
    <path class="cls-5" d="M1029.71,416.92h0c0,55.19-44.81,100-100,100h0c0-55.19,44.81-100,100-100Z" transform="translate(1959.42 933.85) rotate(180)"/>
    <g class="cls-14">
      <circle class="cls-2" cx="979.71" cy="466.92" r="29.32"/>
      <circle class="cls-7" cx="979.71" cy="466.92" r="15.37"/>
      <path class="cls-9" d="M1029.71,416.92l-100,100s-14.77-33.86,27.46-76.09c42.23-42.23,72.54-23.91,72.54-23.91Z"/>
    </g>
    <polygon class="cls-9" points="1129.69 417.23 1029.69 417.23 1129.69 317.23 1129.69 417.23"/>
    <rect class="cls-9" x="1073.33" y="317.23" width="56.36" height="56.36"/>
    <rect class="cls-5" x="1064.6" y="325.95" width="56.36" height="56.36"/>
    <rect class="cls-9" x="1055.87" y="334.68" width="56.36" height="56.36"/>
    <rect class="cls-5" x="1047.14" y="343.41" width="56.36" height="56.36"/>
    <rect class="cls-9" x="1038.42" y="352.14" width="56.36" height="56.36"/>
    <rect class="cls-5" x="1029.69" y="360.87" width="56.36" height="56.36"/>
    <path class="cls-2" d="M1057.87,405.04h0c-8.83,0-15.99-7.16-15.99-15.99h0c0-8.83,7.16-15.99,15.99-15.99h0c8.83,0,15.99,7.16,15.99,15.99h0c0,8.83-7.16,15.99-15.99,15.99Z"/>
  </g>
  <g>
    <rect class="cls-7" x="200.81" y="416.98" width="100" height="100"/>
    <path class="cls-9" d="M300.81,416.98h0v100h-100c0-55.19,44.81-100,100-100Z"/>
    <path class="cls-2" d="M300.81,516.98h0c0-39.12-31.71-70.82-70.82-70.82h0c0,39.12,31.71,70.82,70.82,70.82h0Z"/>
    <g class="cls-11">
      <path class="cls-10" d="M300.81,516.98l-70.82-70.82s29.76-6.21,51.03,17.71c21.27,23.91,19.79,53.12,19.79,53.12Z"/>
    </g>
    <circle class="cls-5" cx="265.4" cy="481.57" r="14.33" transform="translate(-252.68 297.35) rotate(-41.57)"/>
    <path class="cls-5" d="M400.81,416.98h0v100h-100c0-55.19,44.81-100,100-100Z" transform="translate(817.8 116.17) rotate(90)"/>
    <path class="cls-9" d="M371.64,446.16h0c0,39.09-31.74,70.82-70.82,70.82h0c0-39.09,31.74-70.82,70.82-70.82Z"/>
    <g class="cls-19">
      <path class="cls-10" d="M300.81,516.98l70.82-70.82s6.21,29.76-17.71,51.03c-23.91,21.27-53.12,19.79-53.12,19.79Z"/>
    </g>
    <circle class="cls-5" cx="336.22" cy="481.57" r="14.33" transform="translate(-143.91 143.3) rotate(-19.91)"/>
    <path class="cls-9" d="M200.81,316.96h0c55.19,0,100,44.81,100,100h-100v-100h0Z" transform="translate(617.78 116.15) rotate(90)"/>
    <g class="cls-15">
      <polygon class="cls-2" points="200.81 316.96 297.86 422.95 198.9 422.95 200.81 316.96"/>
      <polygon class="cls-3" points="200.81 316.96 241.29 420.85 198.9 422.95 200.81 316.96"/>
    </g>
    <path class="cls-9" d="M37.93,267h12.97v12.97c0,20.44-16.59,37.03-37.03,37.03H.89v-12.97c0-20.44,16.59-37.03,37.03-37.03Z"/>
    <g class="cls-21">
      <path class="cls-2" d="M.89,317l50-50s8.21,32.74-4.75,43.58c-12.95,10.84-31.95,6.42-45.25,6.42Z"/>
    </g>
    <path class="cls-7" d="M37.93,217h12.97v12.97c0,20.44-16.59,37.03-37.03,37.03H.89v-12.97c0-20.44,16.59-37.03,37.03-37.03Z" transform="translate(267.9 216.11) rotate(90)"/>
    <g class="cls-12">
      <path class="cls-2" d="M.89,217l50,50s-32.74,8.21-43.58-4.75c-10.84-12.95-6.42-31.95-6.42-45.25Z"/>
    </g>
    <path class="cls-9" d="M87.93,217h12.97v12.97c0,20.44-16.59,37.03-37.03,37.03h-12.97v-12.97c0-20.44,16.59-37.03,37.03-37.03Z" transform="translate(151.79 484.01) rotate(180)"/>
    <g class="cls-13">
      <path class="cls-2" d="M100.89,217l-50,50s-8.21-32.74,4.75-43.58c12.95-10.84,31.95-6.42,45.25-6.42Z"/>
    </g>
    <path class="cls-7" d="M87.93,267h12.97v12.97c0,20.44-16.59,37.03-37.03,37.03h-12.97v-12.97c0-20.44,16.59-37.03,37.03-37.03Z" transform="translate(-216.11 367.9) rotate(-90)"/>
    <g class="cls-20">
      <path class="cls-2" d="M100.89,317l-50-50s32.74-8.21,43.58,4.75c10.84,12.95,6.42,31.95,6.42,45.25Z"/>
    </g>
    <rect class="cls-10" x=".89" y="316.94" width="100" height="100"/>
    <rect class="cls-6" x="50.89" y="316.94" width="50" height="100"/>
    <path class="cls-8" d="M50.89,364.51h0c0-21.88,17.74-39.62,39.62-39.62h0c0,21.88-17.74,39.62-39.62,39.62Z"/>
    <path class="cls-5" d="M11.28,324.89h0c0,21.88,17.74,39.62,39.62,39.62h0c0-21.88-17.74-39.62-39.62-39.62Z"/>
    <path class="cls-8" d="M50.89,408.99h0c0-21.88,17.74-39.62,39.62-39.62h0c0,21.88-17.74,39.62-39.62,39.62Z"/>
    <path class="cls-5" d="M11.28,369.38h0c0,21.88,17.74,39.62,39.62,39.62h0c0-21.88-17.74-39.62-39.62-39.62Z"/>
    <rect class="cls-2" x="100.81" y="416.94" width="100" height="100"/>
    <path class="cls-9" d="M150.81,416.94h0c27.6,0,50,22.4,50,50v50h-100v-50c0-27.6,22.4-50,50-50Z"/>
    <path class="cls-10" d="M190.11,516.94h-78.59v-47.29c0-21.7,17.59-39.29,39.29-39.29h0c21.7,0,39.29,17.59,39.29,39.29v47.29Z"/>
    <circle class="cls-2" cx="150.81" cy="466.94" r="39.06" transform="translate(-213.27 137.96) rotate(-30)"/>
    <circle class="cls-10" cx="150.81" cy="466.94" r="22.87" transform="translate(-167.21 93.26) rotate(-22.5)"/>
    <g class="cls-17">
      <polygon class="cls-9" points="200.81 514.47 100.89 414.55 100.89 514.47 200.81 514.47"/>
    </g>
    <rect class="cls-7" x="100.81" y="316.94" width="100" height="100"/>
    <rect class="cls-10" x="100.81" y="316.94" width="100" height="100" rx="50" ry="50"/>
    <rect class="cls-5" x="115.46" y="331.59" width="70.71" height="70.71" transform="translate(303.64 .83) rotate(45)"/>
    <path class="cls-8" d="M132.93,384.82h0c-9.87-9.87-9.87-25.88,0-35.76h0c9.87-9.87,25.88-9.87,35.76,0h0c9.87,9.87,9.87,25.88,0,35.76h0c-9.87,9.87-25.88,9.87-35.76,0Z"/>
    <rect class="cls-7" x=".81" y="416.98" width="100" height="100"/>
    <circle class="cls-5" cx="50.81" cy="466.98" r="20.79"/>
    <g class="cls-22">
      <circle class="cls-2" cx="100.81" cy="466.98" r="50" transform="translate(-376.29 491.69) rotate(-80.78)"/>
      <g class="cls-1">
        <circle class="cls-3" cx="50.81" cy="466.98" r="20.79"/>
      </g>
    </g>
    <g>
      <path class="cls-5" d="M27.64,436.95c0,2.59-2.1,4.69-4.69,4.69s-4.69-2.1-4.69-4.69,2.1-4.69,4.69-4.69,4.69,2.1,4.69,4.69Z"/>
      <path class="cls-5" d="M27.64,499.41c0,2.59-2.1,4.69-4.69,4.69s-4.69-2.1-4.69-4.69,2.1-4.69,4.69-4.69,4.69,2.1,4.69,4.69Z"/>
    </g>
    <polygon class="cls-10" points="100.81 217 200.81 317 100.81 317 100.81 217"/>
    <path class="cls-9" d="M100.81,217l100,100h0c-55.23,0-100-44.77-100-100h0Z"/>
    <path class="cls-2" d="M200.81,268.35c26.85,0,48.62,21.77,48.62,48.62h-97.23c0-26.85,21.77-48.62,48.62-48.62Z"/>
    <path class="cls-5" d="M200.81,283.01c18.75,0,33.96,15.2,33.96,33.96h-67.92c0-18.75,15.2-33.96,33.96-33.96Z"/>
    <path class="cls-7" d="M200.81,294.56c12.37,0,22.41,10.03,22.41,22.41h-44.81c0-12.37,10.03-22.41,22.41-22.41Z"/>
    <circle class="cls-2" cx="157.14" cy="246.45" r="9.71" transform="translate(-111.3 362.09) rotate(-80.78)"/>
    <circle class="cls-5" cx="345.94" cy="351.64" r="9.71"/>
    <circle class="cls-9" cx="345.94" cy="382.24" r="9.71" transform="translate(-86.65 662.69) rotate(-80.81)"/>
  </g>
  <g>
    <path class="cls-7" d="M971.76,40.32c0,1.83-1.48,3.31-3.31,3.31s-3.31-1.48-3.31-3.31,1.48-3.31,3.31-3.31,3.31,1.48,3.31,3.31Z"/>
    <path class="cls-7" d="M1001.76,40.32c0,1.83-1.48,3.31-3.31,3.31s-3.31-1.48-3.31-3.31,1.48-3.31,3.31-3.31,3.31,1.48,3.31,3.31Z"/>
    <path class="cls-7" d="M1031.76,40.32c0,1.83-1.48,3.31-3.31,3.31s-3.31-1.48-3.31-3.31,1.48-3.31,3.31-3.31,3.31,1.48,3.31,3.31Z"/>
    <path class="cls-7" d="M1061.76,40.32c0,1.83-1.48,3.31-3.31,3.31s-3.31-1.48-3.31-3.31,1.48-3.31,3.31-3.31,3.31,1.48,3.31,3.31Z"/>
    <path class="cls-7" d="M1091.76,40.32c0,1.83-1.48,3.31-3.31,3.31s-3.31-1.48-3.31-3.31,1.48-3.31,3.31-3.31,3.31,1.48,3.31,3.31Z"/>
    <path class="cls-7" d="M1001.76,70.32c0,1.83-1.48,3.31-3.31,3.31s-3.31-1.48-3.31-3.31,1.48-3.31,3.31-3.31,3.31,1.48,3.31,3.31Z"/>
    <path class="cls-7" d="M1031.76,70.32c0,1.83-1.48,3.31-3.31,3.31s-3.31-1.48-3.31-3.31,1.48-3.31,3.31-3.31,3.31,1.48,3.31,3.31Z"/>
    <path class="cls-7" d="M1061.76,70.32c0,1.83-1.48,3.31-3.31,3.31s-3.31-1.48-3.31-3.31,1.48-3.31,3.31-3.31,3.31,1.48,3.31,3.31Z"/>
    <path class="cls-7" d="M1091.76,70.32c0,1.83-1.48,3.31-3.31,3.31s-3.31-1.48-3.31-3.31,1.48-3.31,3.31-3.31,3.31,1.48,3.31,3.31Z"/>
    <path class="cls-7" d="M1031.76,100.32c0,1.83-1.48,3.31-3.31,3.31s-3.31-1.48-3.31-3.31,1.48-3.31,3.31-3.31,3.31,1.48,3.31,3.31Z"/>
    <path class="cls-7" d="M1061.76,100.32c0,1.83-1.48,3.31-3.31,3.31s-3.31-1.48-3.31-3.31,1.48-3.31,3.31-3.31,3.31,1.48,3.31,3.31Z"/>
    <path class="cls-7" d="M1091.76,100.32c0,1.83-1.48,3.31-3.31,3.31s-3.31-1.48-3.31-3.31,1.48-3.31,3.31-3.31,3.31,1.48,3.31,3.31Z"/>
  </g>
</svg>