<?xml version="1.0" encoding="UTF-8"?>
<svg id="Layer_1" data-name="Layer 1" xmlns="http://www.w3.org/2000/svg" viewBox="0 0 108.88 24.51">
  <defs>
    <style>
      .cls-1 {
        fill: #559fff;
        stroke-width: 0px;
      }
    </style>
  </defs>
  <path class="cls-1" d="M21.24,6.73l-7.95,10.43h-.91L4.6,6.7v17.47H0V.15h5.3l7.64,10.33L20.58.15h5.27v24.02h-4.6V6.73Z"/>
  <path class="cls-1" d="M46.96,15.69c0,4.87-3.38,8.82-8.96,8.82s-8.93-3.95-8.93-8.82,3.42-8.82,8.9-8.82,9,3.98,9,8.82ZM33.32,15.69c0,2.57,1.57,4.98,4.67,4.98s4.67-2.4,4.67-4.98-1.81-5.01-4.67-5.01c-3.07,0-4.67,2.47-4.67,5.01Z"/>
  <path class="cls-1" d="M55.54,2.44v4.8h4.74v3.6h-4.78v7.31c0,1.61.91,2.4,2.23,2.4.66,0,1.43-.21,2.06-.51l1.19,3.57c-1.22.48-2.23.69-3.52.72-3.73.14-6.17-1.96-6.17-6.18v-7.31h-3.21v-3.6h3.21V2.89l4.26-.45Z"/>
  <path class="cls-1" d="M68.1,2.44c0,3.26-5.02,3.26-5.02,0s5.02-3.26,5.02,0ZM63.46,7.15v16.99h4.25V7.15h-4.25Z"/>
  <path class="cls-1" d="M89.03,15.69c0,4.87-3.38,8.82-8.96,8.82s-8.93-3.95-8.93-8.82,3.42-8.82,8.89-8.82,9,3.98,9,8.82ZM75.39,15.69c0,2.57,1.57,4.98,4.67,4.98s4.67-2.4,4.67-4.98-1.81-5.01-4.67-5.01c-3.07,0-4.67,2.47-4.67,5.01Z"/>
  <path class="cls-1" d="M104.62,24.13v-8.85c0-2.57-1.43-4.53-4.15-4.53s-4.39,2.16-4.39,4.74v8.65h-4.22V7.18h3.8l.28,2.3c1.74-1.68,3.49-2.54,5.65-2.54,4.05,0,7.29,2.99,7.29,8.3v8.89h-4.25Z"/>
</svg>