<?xml version="1.0" encoding="UTF-8"?>
<svg id="Layer_1" data-name="Layer 1" xmlns="http://www.w3.org/2000/svg" viewBox="0 0 88.58 53.57">
  <defs>
    <style>
      .cls-1 {
        fill: #2c58c3;
      }

      .cls-1, .cls-2, .cls-3, .cls-4, .cls-5, .cls-6 {
        stroke-width: 0px;
      }

      .cls-2 {
        fill: #3970d7;
      }

      .cls-3 {
        fill: #1e40af;
      }

      .cls-4 {
        fill: #4787eb;
      }

      .cls-5 {
        fill: #f4f4f4;
      }

      .cls-6 {
        fill: #559fff;
      }
    </style>
  </defs>
  <g>
    <polygon class="cls-3" points="13.12 43.16 11.39 46.54 7.64 47.13 10.32 49.82 9.73 53.57 13.12 51.85 16.5 53.57 15.91 49.82 18.59 47.13 14.84 46.54 13.12 43.16"/>
    <polygon class="cls-1" points="29.24 43.16 27.51 46.54 23.76 47.13 26.45 49.82 25.85 53.57 29.24 51.85 32.62 53.57 32.03 49.82 34.72 47.13 30.97 46.54 29.24 43.16"/>
    <polygon class="cls-2" points="45.36 43.16 43.64 46.54 39.89 47.13 42.57 49.82 41.98 53.57 45.36 51.85 48.75 53.57 48.15 49.82 50.84 47.13 47.09 46.54 45.36 43.16"/>
    <polygon class="cls-4" points="61.48 43.16 59.76 46.54 56.01 47.13 58.69 49.82 58.1 53.57 61.48 51.85 64.87 53.57 64.28 49.82 66.96 47.13 63.21 46.54 61.48 43.16"/>
    <polygon class="cls-6" points="77.61 43.16 75.88 46.54 72.13 47.13 74.81 49.82 74.22 53.57 77.61 51.85 80.99 53.57 80.4 49.82 83.08 47.13 79.33 46.54 77.61 43.16"/>
  </g>
  <g>
    <path class="cls-5" d="M18.77,7.54c-.95-1.56-3.58-3.05-6.6-3.05-3.9,0-5.77,1.6-5.77,3.64,0,2.38,2.86,3.05,6.2,3.44,5.81.7,11.21,2.19,11.21,8.72,0,6.1-5.49,8.72-11.69,8.72-5.69,0-10.06-1.72-12.13-6.73l4.37-2.23c1.23,3.01,4.45,4.34,7.83,4.34s6.4-1.13,6.4-4.11c0-2.58-2.74-3.64-6.44-4.03C6.48,15.6,1.23,14.11,1.23,7.98,1.23,2.35,6.88.04,12.01,0c4.33,0,8.83,1.21,10.94,5.43l-4.18,2.11Z"/>
    <path class="cls-5" d="M47.79,18.69c0,5.55-3.86,10.05-10.22,10.05s-10.18-4.5-10.18-10.05,3.9-10.05,10.14-10.05,10.26,4.53,10.26,10.05ZM32.24,18.69c0,2.93,1.79,5.67,5.33,5.67s5.33-2.74,5.33-5.67-2.07-5.71-5.33-5.71c-3.5,0-5.33,2.81-5.33,5.71Z"/>
    <path class="cls-5" d="M55.62,9.03l.36,2.23c1.51-2.38,3.54-2.74,5.53-2.74s3.98.78,5.05,1.84l-2.19,4.14c-.99-.82-1.91-1.25-3.5-1.25-2.54,0-4.89,1.33-4.89,4.89v10.16h-4.85V9.03h4.49Z"/>
    <path class="cls-5" d="M83.93,9.03h4.65v19.27h-4.57l-.24-2.81c-1.11,2.27-4.18,3.36-6.36,3.4-5.81.04-10.1-3.48-10.1-10.24s4.49-10.13,10.22-10.09c2.62,0,5.13,1.21,6.24,3.13l.16-2.66ZM72.16,18.65c0,3.67,2.58,5.86,5.81,5.86,7.63,0,7.63-11.69,0-11.69-3.22,0-5.81,2.15-5.81,5.83Z"/>
  </g>
</svg>